<?xml version="1.0" encoding="utf-8"?>
<!-- Generator: Adobe Illustrator 19.1.0, SVG Export Plug-In . SVG Version: 6.00 Build 0)  -->
<svg version="1.1" id="Layer_1" xmlns="http://www.w3.org/2000/svg" xmlns:xlink="http://www.w3.org/1999/xlink" x="0px" y="0px"
	 viewBox="0 0 321.7 97.5" style="enable-background:new 0 0 321.7 97.5;" xml:space="preserve">
<style type="text/css">
	.st0{fill:#D52B1E;}
	.st1{fill:#231F20;}
</style>
<g>
	<path class="st0" d="M59.9,14.6L42.4,0.1c-0.4-0.3-0.9-0.1-1.1,0.6c0,0-1.1,3-1.5,4c-0.6,1.5-1.9,1.8-2.4,1.8
		c-0.5,0-10.1,0.7-10.1,0.7c-0.5,0-0.8,0.3-0.8,0.8c0,0.1,0,0.1,0,0.2c0,0,1.7,7.8,2.1,9.4c0,0.2,0.1,0.4,0.1,0.6
		c0,1-0.5,1.4-0.9,1.7c-0.8,0.7-4.2,3-4.2,3c-0.3,0.2-0.5,0.5-0.5,0.8c0,0.2,0.1,0.3,0.3,0.5c0,0,7.8,4.3,9.7,5.4
		c0.5,0.3,0.7,0.7,0.7,1.2c0,0.9-0.9,1.9-2.1,2.1c-1.7,0.2-21.2,1.7-21.2,1.7c-0.4,0-0.7,0.3-0.6,0.5c0,0.1,0,0.2,0.1,0.4
		c0,0,2.3,3.3,3.2,4.4c0.4,0.4,0.5,0.8,0.5,1.2c0,0.6-0.4,1.2-0.9,1.6C12.1,43.2,0.2,53.5,0.2,53.5c-0.3,0.2-0.4,0.6,1.1,0
		c1.4-0.6,13-6,23.1-8.6c8.8-2.3,21.9-2.7,31.7-7.3c9.8-4.6,12.5-9.9,13.9-13.9C71.3,19.3,69.8,12,71,9.2c1.1-2.6,1.9-3.2,1.8-3.3
		c-0.1-0.1-0.2-0.1-0.6,0.2c-0.6,0.5-1.7,0.6-3.2,0.9c-2,0.3-3.8,1.2-5.1,2.8c-1.5,1.8-2.4,4.3-2.9,4.8
		C60.6,14.9,60.1,14.8,59.9,14.6z"/>
	<g>
		<g>
			<path d="M188.3,78.5c4.4,0,6.7,2.4,6.7,2.4l-1.3,1.9c0,0-2.1-2-5.3-2c-4.1,0-6.8,3.1-6.8,7c0,3.9,2.7,7.3,6.8,7.3
				c3.5,0,5.7-2.4,5.7-2.4l1.4,1.8c0,0-2.5,2.9-7.1,2.9c-5.5,0-9.4-4.2-9.4-9.6C179,82.6,183,78.5,188.3,78.5z"/>
			<path d="M204.1,89h0.6v-0.2c0-2.2-1.2-2.9-2.9-2.9c-2,0-3.7,1.3-3.7,1.3l-1-1.8c0,0,1.9-1.6,4.9-1.6c3.3,0,5.2,1.8,5.2,5.2v8.3
				h-2.3V96c0-0.6,0.1-1,0.1-1h-0.1c0,0-1.1,2.6-4.2,2.6c-2.3,0-4.5-1.4-4.5-4C196.1,89.2,201.9,89,204.1,89z M201.2,95.5
				c2.1,0,3.5-2.2,3.5-4.2v-0.4H204c-1.9,0-5.3,0.1-5.3,2.5C198.7,94.5,199.5,95.5,201.2,95.5z"/>
			<path d="M209.6,84h2.4v1.7c0,0.5-0.1,1-0.1,1h0.1c0.5-1.1,2.1-3,4.9-3c3.1,0,4.5,1.7,4.5,5v8.4H219v-7.9c0-1.8-0.4-3.3-2.5-3.3
				c-2,0-3.6,1.3-4.2,3.2c-0.2,0.5-0.2,1.1-0.2,1.8v6.2h-2.5V84z"/>
			<path d="M231.2,89h0.6v-0.2c0-2.2-1.2-2.9-2.9-2.9c-2,0-3.7,1.3-3.7,1.3l-1-1.8c0,0,1.9-1.6,4.9-1.6c3.3,0,5.2,1.8,5.2,5.2v8.3
				h-2.3V96c0-0.6,0.1-1,0.1-1h-0.1c0,0-1.1,2.6-4.2,2.6c-2.3,0-4.5-1.4-4.5-4C223.2,89.2,229,89,231.2,89z M228.3,95.5
				c2.1,0,3.5-2.2,3.5-4.2v-0.4h-0.7c-1.9,0-5.3,0.1-5.3,2.5C225.8,94.5,226.6,95.5,228.3,95.5z"/>
			<path d="M242.1,83.7c3,0,4.1,2.1,4.1,2.1h0.1c0,0-0.1-0.4-0.1-0.9v-6.1h2.5v18.4h-2.4V96c0-0.5,0-0.9,0-0.9h-0.1
				c0,0-1.1,2.4-4.3,2.4c-3.6,0-5.8-2.8-5.8-6.9C236.1,86.4,238.6,83.7,242.1,83.7z M242.4,95.3c2,0,3.8-1.4,3.8-4.7
				c0-2.3-1.2-4.7-3.7-4.7c-2.1,0-3.8,1.7-3.8,4.7C238.7,93.5,240.3,95.3,242.4,95.3z"/>
			<path d="M258.5,89h0.6v-0.2c0-2.2-1.2-2.9-2.9-2.9c-2,0-3.7,1.3-3.7,1.3l-1-1.8c0,0,1.9-1.6,4.9-1.6c3.3,0,5.2,1.8,5.2,5.2v8.3
				h-2.3V96c0-0.6,0.1-1,0.1-1h-0.1c0,0-1.1,2.6-4.2,2.6c-2.3,0-4.5-1.4-4.5-4C250.5,89.2,256.3,89,258.5,89z M255.6,95.5
				c2.1,0,3.5-2.2,3.5-4.2v-0.4h-0.7c-1.9,0-5.3,0.1-5.3,2.5C253.1,94.5,253.9,95.5,255.6,95.5z"/>
		</g>
		<g>
			<path d="M41.4,78.6c4.4,0,6.7,2.2,6.7,2.2l-1.3,1.9c0,0-2.1-1.8-5.2-1.8c-4.3,0-6.9,3.1-6.9,7.1c0,4.3,2.9,7.2,6.8,7.2
				c3.2,0,5.2-2.3,5.2-2.3v-2.7h-3V88H49v9.2h-2.3v-1.1c0-0.4,0-0.8,0-0.8h-0.1c0,0-2,2.2-5.6,2.2c-4.9,0-9-3.9-9-9.5
				C32,82.7,36,78.6,41.4,78.6z"/>
			<path d="M51.2,84.1h2.4v2.3c0,0.5-0.1,1-0.1,1h0.1c0.6-1.9,2.1-3.4,4.2-3.4c0.3,0,0.6,0.1,0.6,0.1v2.5c0,0-0.3-0.1-0.7-0.1
				c-1.6,0-3.1,1.1-3.7,3.1c-0.2,0.8-0.3,1.6-0.3,2.4v5.4h-2.5V84.1z"/>
			<path d="M66.5,89H67v-0.2c0-2.2-1.2-2.9-2.9-2.9c-2,0-3.7,1.3-3.7,1.3l-1-1.8c0,0,1.9-1.6,4.9-1.6c3.3,0,5.2,1.8,5.2,5.1v8.3
				h-2.3V96c0-0.6,0.1-1,0.1-1h-0.1c0,0-1.1,2.6-4.2,2.6c-2.3,0-4.5-1.4-4.5-4C58.5,89.2,64.3,89,66.5,89z M63.6,95.5
				c2.1,0,3.5-2.2,3.5-4.2v-0.4h-0.6c-1.9,0-5.3,0.1-5.3,2.5C61.1,94.5,61.9,95.5,63.6,95.5z"/>
			<path d="M72,84.1h2.4v1.7c0,0.5-0.1,1-0.1,1h0.1c0.5-1.1,2.1-3,4.9-3c3.1,0,4.5,1.7,4.5,5v8.4h-2.5v-7.8c0-1.8-0.4-3.3-2.5-3.3
				c-2,0-3.6,1.3-4.2,3.2c-0.2,0.5-0.2,1.1-0.2,1.8v6.2H72V84.1z"/>
			<path d="M91.7,83.8c3,0,4.1,2.1,4.1,2.1h0.1c0,0-0.1-0.4-0.1-0.9v-6.1h2.5v18.3h-2.4V96c0-0.5,0-0.9,0-0.9h-0.1
				c0,0-1.1,2.4-4.3,2.4c-3.6,0-5.8-2.8-5.8-6.9C85.8,86.5,88.3,83.8,91.7,83.8z M92.1,95.3c1.9,0,3.8-1.4,3.8-4.7
				c0-2.3-1.2-4.7-3.7-4.7c-2.1,0-3.8,1.7-3.8,4.7C88.4,93.5,89.9,95.3,92.1,95.3z"/>
			<path d="M101.1,93.8c0,0,1.5,1.5,3.8,1.5c1.1,0,2.2-0.6,2.2-1.6c0-2.4-6.8-1.9-6.8-6.2c0-2.4,2.1-3.7,4.8-3.7
				c2.9,0,4.2,1.5,4.2,1.5l-1,1.9c0,0-1.2-1.2-3.2-1.2c-1.1,0-2.2,0.5-2.2,1.6c0,2.4,6.8,1.8,6.8,6.2c0,2.2-1.9,3.8-4.8,3.8
				c-3.2,0-5-1.9-5-1.9L101.1,93.8z"/>
		</g>
		<g>
			<path d="M118,78.9h6.1c5.6,0,9.3,3.4,9.3,9.1c0,5.8-3.7,9.2-9.3,9.2H118V78.9z M123.9,95c4.1,0,6.8-2.4,6.8-7
				c0-4.5-2.7-6.9-6.8-6.9h-3.3V95H123.9z"/>
			<path d="M141,83.8c3.7,0,5.7,2.8,5.7,6.2c0,0.3-0.1,1.1-0.1,1.1h-9.6c0.1,2.9,2.2,4.3,4.5,4.3c2.3,0,3.9-1.5,3.9-1.5l1,1.8
				c0,0-1.9,1.9-5.1,1.9c-4.1,0-7-3-7-6.9C134.5,86.5,137.3,83.8,141,83.8z M144.2,89.1c-0.1-2.3-1.5-3.3-3.2-3.3
				c-1.9,0-3.5,1.2-3.8,3.3H144.2z M141.8,79.8h2.7l-2.5,3.3h-2.1L141.8,79.8z"/>
			<path d="M158.4,86.1h-6.5v11.1h-2.5V86.1h-1.6v-2h1.6v-0.4c0-4.3,3.3-4.8,4.9-4.8c0.6,0,1,0.1,1,0.1v2.3c0,0-0.3-0.1-0.6-0.1
				c-1,0-2.8,0-2.8,2.5v0.4h9v13.1h-2.5V86.1z M158.4,78.9h2.5v2.6h-2.5V78.9z"/>
			<path d="M163.8,93.8c0,0,1.5,1.5,3.8,1.5c1.1,0,2.2-0.6,2.2-1.6c0-2.4-6.8-1.9-6.8-6.2c0-2.4,2.1-3.7,4.8-3.7
				c2.9,0,4.2,1.5,4.2,1.5l-1,1.9c0,0-1.2-1.2-3.2-1.2c-1.1,0-2.2,0.5-2.2,1.6c0,2.4,6.8,1.8,6.8,6.2c0,2.2-1.9,3.8-4.8,3.8
				c-3.2,0-5-1.9-5-1.9L163.8,93.8z"/>
		</g>
	</g>
	<g>
		<g>
			<path d="M241.6,53.1c4.4,0,6.7,2.4,6.7,2.4l-1.3,1.9c0,0-2.1-2-5.3-2c-4.1,0-6.8,3.1-6.8,7c0,3.9,2.7,7.3,6.8,7.3
				c3.5,0,5.7-2.4,5.7-2.4l1.4,1.8c0,0-2.5,2.9-7.1,2.9c-5.5,0-9.4-4.2-9.4-9.6C232.3,57.1,236.3,53.1,241.6,53.1z"/>
			<path d="M257.4,63.5h0.6v-0.2c0-2.2-1.2-2.9-2.9-2.9c-2,0-3.7,1.3-3.7,1.3l-1-1.8c0,0,1.9-1.6,4.9-1.6c3.3,0,5.2,1.8,5.2,5.2v8.3
				h-2.3v-1.2c0-0.6,0.1-1,0.1-1h-0.1c0,0-1.1,2.6-4.2,2.6c-2.3,0-4.5-1.4-4.5-4C249.4,63.7,255.2,63.5,257.4,63.5z M254.5,70
				c2.1,0,3.5-2.2,3.5-4.2v-0.4h-0.7c-1.9,0-5.3,0.1-5.3,2.5C252,69,252.8,70,254.5,70z"/>
			<path d="M262.9,58.6h2.4v1.7c0,0.5-0.1,1-0.1,1h0.1c0.5-1.1,2.1-3,4.9-3c3.1,0,4.5,1.7,4.5,5v8.4h-2.5v-7.9
				c0-1.8-0.4-3.3-2.5-3.3c-2,0-3.6,1.3-4.2,3.2c-0.2,0.5-0.2,1.1-0.2,1.8v6.2h-2.5V58.6z"/>
			<path d="M284.5,63.5h0.6v-0.2c0-2.2-1.2-2.9-2.9-2.9c-2,0-3.7,1.3-3.7,1.3l-1-1.8c0,0,1.9-1.6,4.9-1.6c3.3,0,5.2,1.8,5.2,5.2v8.3
				h-2.3v-1.2c0-0.6,0.1-1,0.1-1h-0.1c0,0-1.1,2.6-4.2,2.6c-2.3,0-4.5-1.4-4.5-4C276.5,63.7,282.3,63.5,284.5,63.5z M281.6,70
				c2.1,0,3.5-2.2,3.5-4.2v-0.4h-0.7c-1.9,0-5.3,0.1-5.3,2.5C279.1,69,279.9,70,281.6,70z"/>
			<path d="M295.4,58.3c3,0,4.1,2.1,4.1,2.1h0.1c0,0-0.1-0.4-0.1-0.9v-6.1h2.5v18.4h-2.4v-1.2c0-0.5,0-0.9,0-0.9h-0.1
				c0,0-1.1,2.4-4.3,2.4c-3.6,0-5.8-2.8-5.8-6.9C289.5,61,291.9,58.3,295.4,58.3z M295.8,69.9c2,0,3.8-1.4,3.8-4.7
				c0-2.3-1.2-4.7-3.7-4.7c-2.1,0-3.8,1.7-3.8,4.7C292,68,293.6,69.9,295.8,69.9z"/>
			<path d="M311.8,63.5h0.6v-0.2c0-2.2-1.2-2.9-2.9-2.9c-2,0-3.7,1.3-3.7,1.3l-1-1.8c0,0,1.9-1.6,4.9-1.6c3.3,0,5.2,1.8,5.2,5.2v8.3
				h-2.3v-1.2c0-0.6,0.1-1,0.1-1h-0.1c0,0-1.1,2.6-4.2,2.6c-2.3,0-4.5-1.4-4.5-4C303.9,63.7,309.6,63.5,311.8,63.5z M308.9,70
				c2.1,0,3.5-2.2,3.5-4.2v-0.4h-0.7c-1.9,0-5.3,0.1-5.3,2.5C306.4,69,307.2,70,308.9,70z"/>
		</g>
		<g>
			<path d="M41.4,53.1c4.4,0,6.7,2.2,6.7,2.2l-1.3,1.9c0,0-2.1-1.8-5.2-1.8c-4.3,0-6.9,3.1-6.9,7.1c0,4.3,2.9,7.2,6.8,7.2
				c3.2,0,5.2-2.3,5.2-2.3v-2.7h-3v-2.2H49v9.2h-2.3v-1.1c0-0.4,0-0.8,0-0.8h-0.1c0,0-2,2.2-5.6,2.2c-4.9,0-9-3.9-9-9.5
				C32,57.3,36,53.1,41.4,53.1z"/>
			<path d="M51.2,58.6h2.4v2.3c0,0.5-0.1,1-0.1,1h0.1c0.6-1.9,2.1-3.4,4.2-3.4c0.3,0,0.6,0.1,0.6,0.1V61c0,0-0.3-0.1-0.7-0.1
				c-1.6,0-3.1,1.1-3.7,3.1c-0.2,0.8-0.3,1.6-0.3,2.4v5.4h-2.5V58.6z"/>
			<path d="M66.5,63.5H67v-0.2c0-2.2-1.2-2.9-2.9-2.9c-2,0-3.7,1.3-3.7,1.3l-1-1.8c0,0,1.9-1.6,4.9-1.6c3.3,0,5.2,1.8,5.2,5.1v8.3
				h-2.3v-1.2c0-0.6,0.1-1,0.1-1h-0.1c0,0-1.1,2.6-4.2,2.6c-2.3,0-4.5-1.4-4.5-4C58.5,63.7,64.3,63.5,66.5,63.5z M63.6,70
				c2.1,0,3.5-2.2,3.5-4.2v-0.4h-0.6c-1.9,0-5.3,0.1-5.3,2.5C61.1,69,61.9,70,63.6,70z"/>
			<path d="M72,58.6h2.4v1.7c0,0.5-0.1,1-0.1,1h0.1c0.5-1.1,2.1-3,4.9-3c3.1,0,4.5,1.7,4.5,5v8.4h-2.5v-7.8c0-1.8-0.4-3.3-2.5-3.3
				c-2,0-3.6,1.3-4.2,3.2c-0.2,0.5-0.2,1.1-0.2,1.8v6.2H72V58.6z"/>
			<path d="M91.7,58.3c3,0,4.1,2.1,4.1,2.1h0.1c0,0-0.1-0.4-0.1-0.9v-6.1h2.5v18.3h-2.4v-1.2c0-0.5,0-0.9,0-0.9h-0.1
				c0,0-1.1,2.4-4.3,2.4c-3.6,0-5.8-2.8-5.8-6.9C85.8,61,88.3,58.3,91.7,58.3z M92.1,69.9c1.9,0,3.8-1.4,3.8-4.7
				c0-2.3-1.2-4.7-3.7-4.7c-2.1,0-3.8,1.7-3.8,4.7C88.4,68,89.9,69.9,92.1,69.9z"/>
		</g>
		<g>
			<path d="M114.9,53.1c4.4,0,6.7,2.4,6.7,2.4l-1.3,1.9c0,0-2.1-2-5.3-2c-4.1,0-6.8,3.1-6.8,7c0,3.9,2.7,7.2,6.8,7.2
				c3.5,0,5.7-2.4,5.7-2.4l1.4,1.8c0,0-2.5,2.9-7.1,2.9c-5.5,0-9.4-4.2-9.4-9.6C105.5,57.1,109.5,53.1,114.9,53.1z"/>
			<path d="M123.2,53.4h2.5v6.7c0,0.6-0.1,1.1-0.1,1.1h0.1c0.6-1.3,2.2-2.9,4.9-2.9c3.1,0,4.5,1.7,4.5,5v8.4h-2.5v-7.8
				c0-1.8-0.4-3.3-2.5-3.3c-2,0-3.6,1.4-4.2,3.2c-0.2,0.5-0.2,1.1-0.2,1.7v6.2h-2.5V53.4z"/>
			<path d="M144.4,63.5h0.6v-0.2c0-2.2-1.2-2.9-2.9-2.9c-2,0-3.7,1.3-3.7,1.3l-1-1.8c0,0,1.9-1.6,4.9-1.6c3.3,0,5.2,1.8,5.2,5.1v8.3
				h-2.3v-1.2c0-0.6,0.1-1,0.1-1h-0.1c0,0-1.1,2.6-4.2,2.6c-2.3,0-4.5-1.4-4.5-4C136.5,63.7,142.2,63.5,144.4,63.5z M141.5,70
				c2.1,0,3.5-2.2,3.5-4.2v-0.4h-0.6c-1.9,0-5.3,0.1-5.3,2.5C139,69,139.9,70,141.5,70z"/>
			<path d="M149.8,53.4h2.5v14.3c0,1.6,0.6,1.9,1.4,1.9c0.2,0,0.4,0,0.4,0v2.2c0,0-0.4,0-0.8,0c-1.4,0-3.5-0.4-3.5-3.7V53.4z"/>
			<path d="M155.9,53.4h2.5v14.3c0,1.6,0.6,1.9,1.4,1.9c0.2,0,0.4,0,0.4,0v2.2c0,0-0.4,0-0.8,0c-1.4,0-3.5-0.4-3.5-3.7V53.4z"/>
			<path d="M167.6,58.3c3.7,0,5.7,2.8,5.7,6.2c0,0.3-0.1,1.1-0.1,1.1h-9.6c0.1,2.9,2.2,4.3,4.5,4.3c2.3,0,3.9-1.5,3.9-1.5l1,1.8
				c0,0-1.9,1.9-5.1,1.9c-4.1,0-7-3-7-6.9C161,61,163.8,58.3,167.6,58.3z M170.7,63.6c-0.1-2.3-1.5-3.4-3.2-3.4
				c-1.9,0-3.5,1.2-3.8,3.4H170.7z"/>
			<path d="M175.3,58.6h2.4v1.7c0,0.5-0.1,1-0.1,1h0.1c0.5-1.1,2.1-3,4.9-3c3.1,0,4.5,1.7,4.5,5v8.4h-2.5v-7.8
				c0-1.8-0.4-3.3-2.5-3.3c-2,0-3.6,1.3-4.2,3.2c-0.2,0.5-0.2,1.1-0.2,1.8v6.2h-2.5V58.6z"/>
			<path d="M194.7,75c2.3,0,4.2-1,4.2-3.7v-1c0-0.4,0-0.8,0-0.8h-0.1c-0.8,1.3-2,2.1-3.9,2.1c-3.7,0-5.9-2.9-5.9-6.7
				c0-3.8,2.1-6.6,5.7-6.6c3.2,0,4.1,1.9,4.1,1.9h0.1c0,0,0-0.2,0-0.4v-1.2h2.4v12.6c0,4.3-3.3,6-6.6,6c-1.6,0-3.2-0.4-4.5-1.1
				l0.8-2C191.1,74.1,192.7,75,194.7,75z M198.9,64.9c0-3.4-1.7-4.4-3.7-4.4c-2.3,0-3.6,1.7-3.6,4.3c0,2.7,1.5,4.6,3.8,4.6
				C197.3,69.4,198.9,68.3,198.9,64.9z"/>
			<path d="M209.7,58.3c3.7,0,5.7,2.8,5.7,6.2c0,0.3-0.1,1.1-0.1,1.1h-9.6c0.1,2.9,2.2,4.3,4.5,4.3c2.3,0,3.9-1.5,3.9-1.5l1,1.8
				c0,0-1.9,1.9-5.1,1.9c-4.1,0-7-3-7-6.9C203.1,61,206,58.3,209.7,58.3z M212.8,63.6c-0.1-2.3-1.5-3.4-3.2-3.4
				c-1.9,0-3.5,1.2-3.8,3.4H212.8z"/>
			<path d="M217.6,68.3c0,0,1.5,1.5,3.8,1.5c1.1,0,2.2-0.6,2.2-1.6c0-2.4-6.8-1.9-6.8-6.2c0-2.4,2.1-3.7,4.8-3.7
				c2.9,0,4.2,1.5,4.2,1.5l-1,1.9c0,0-1.2-1.2-3.2-1.2c-1.1,0-2.2,0.5-2.2,1.6c0,2.4,6.8,1.8,6.8,6.2c0,2.2-1.9,3.8-4.8,3.8
				c-3.2,0-5-1.9-5-1.9L217.6,68.3z"/>
		</g>
	</g>
	<g>
		<g>
			<path class="st1" d="M318.6,52.2c1.7,0,3.1,1.4,3.1,3.2c0,1.8-1.4,3.2-3.1,3.2c-1.7,0-3.1-1.4-3.1-3.2
				C315.5,53.6,316.9,52.2,318.6,52.2z M318.6,58c1.4,0,2.5-1.1,2.5-2.6c0-1.5-1.1-2.6-2.5-2.6c-1.4,0-2.5,1.1-2.5,2.6
				C316.1,56.8,317.2,58,318.6,58z M317.5,53.7h1.3c0.6,0,1,0.4,1,1c0,0.5-0.3,0.8-0.6,0.9v0c0,0,0,0,0.1,0.2L320,57h-0.7l-0.6-1.3
				h-0.5V57h-0.6V53.7z M318.7,55.3c0.3,0,0.5-0.2,0.5-0.6c0-0.3-0.2-0.5-0.5-0.5h-0.5v1.1H318.7z"/>
		</g>
	</g>
</g>
</svg>
